<svg width="173" height="173" viewBox="0 0 173 173" fill="none" xmlns="http://www.w3.org/2000/svg">
<path fill-rule="evenodd" clip-rule="evenodd" d="M75.7718 23.4002C62.9034 36.2701 52.3745 46.9528 52.3745 47.1389C52.3745 47.3254 57.6589 52.7607 64.1174 59.2175L75.8606 70.9574H99.8485L134.984 35.8163L99.169 0L75.7718 23.4002ZM114.206 34.9678C114.206 35.1577 107.972 41.5455 100.354 49.1629L86.5017 63.0123L79.7432 56.2599C76.0262 52.5462 72.985 49.3568 72.985 49.1724C72.985 48.9882 74.5405 47.2761 76.4421 45.3681L79.8993 41.8989L86.5057 48.4807L107.273 27.7127L110.739 31.1676C112.646 33.0675 114.206 34.7776 114.206 34.9678ZM0 91.2308H173L152.72 60.8207H124.503L114.383 70.9574H132.113V81.0941H40.8867V70.9574H61.6577L51.5383 60.8207H20.28L0 91.2308ZM0.00371664 121.641H172.996V101.367H0.00371664V121.641ZM10.14 173H162.86V131.777H10.14V173Z" fill="#348318"/>
</svg>
